<svg width="33" height="32" viewBox="0 0 33 32" fill="none" xmlns="http://www.w3.org/2000/svg">
<rect width="32.0024" height="32" rx="4" fill="#FFECE6"/>
<path d="M16.0012 6C10.4863 6 6 10.4859 6 15.9988C6 21.5161 10.4859 26 16.0012 26C21.5165 26 26.0024 21.5161 26.0024 15.9988C26.0024 10.4859 21.5165 6 16.0012 6ZM16.0012 24.5069C11.3102 24.5069 7.49314 20.692 7.49314 15.9988C7.49314 11.3078 11.3103 7.49314 16.0012 7.49314C20.6942 7.49314 24.5069 11.3103 24.5069 15.9988C24.5069 20.6918 20.6942 24.5069 16.0012 24.5069Z" fill="#FF8F67"/>
<path d="M16.5016 15.2759C15.1458 14.7152 14.5693 14.3099 14.5693 13.5013C14.5693 12.8798 15.022 12.1614 16.2199 12.1614C17.2176 12.1614 17.8549 12.5037 18.1814 12.6906L18.571 11.6638C18.1207 11.398 17.481 11.1481 16.5487 11.1188L16.5488 9.60767H15.5804V11.1818C14.1481 11.4139 13.2317 12.3957 13.2317 13.6883C13.2317 15.0439 14.2135 15.7601 15.8012 16.3817C16.952 16.8501 17.5599 17.3772 17.5599 18.2352C17.5599 19.1224 16.8121 19.762 15.7064 19.762C14.8349 19.762 14.0242 19.4648 13.4634 19.091L13.0898 20.1335C13.6348 20.5253 14.5694 20.8046 15.4724 20.8227V22.3923H16.4541L16.4543 20.773C18.0555 20.5096 18.9135 19.3542 18.9135 18.1269C18.9133 16.7397 18.105 15.9313 16.5015 15.2759H16.5016Z" fill="#FF8F67"/>
</svg>
