<svg width="30" height="30" viewBox="0 0 30 30" fill="none" xmlns="http://www.w3.org/2000/svg">
<rect width="30" height="30" rx="15" fill="#F4F6F8"/>
<path fill-rule="evenodd" clip-rule="evenodd" d="M9.28472 6.28633C5.58205 7.41944 4.26185 11.2488 5.3915 14.5991C7.20862 19.9716 15.0014 24 15.0014 24C15.0014 24 22.8521 19.9096 24.6102 14.5991C25.7388 11.2488 24.4102 7.41944 20.7075 6.28633C18.762 5.69328 16.5332 6.07331 15.0014 7.19842C13.3822 6.04131 11.2324 5.68928 9.28472 6.28633ZM18.7574 9.27341C18.3561 9.1707 17.9476 9.41274 17.8448 9.81402C17.7421 10.2153 17.9842 10.6239 18.3855 10.7266C19.768 11.0804 20.5877 12.009 20.6825 12.9336C20.7247 13.3457 21.093 13.6455 21.5051 13.6032C21.9171 13.561 22.2169 13.1927 22.1747 12.7806C21.9982 11.0604 20.5644 9.73589 18.7574 9.27341Z" fill="#C5D0E6"/>
</svg>
