<svg width="18" height="20" viewBox="0 0 18 20" fill="none" xmlns="http://www.w3.org/2000/svg">
<path d="M6.57227 19.7777C5.31108 19.1334 4.41035 17.9999 4.35883 16.6667C4.28163 14.1779 6.28916 12.9556 7.47318 11.2889C9.17192 8.88895 8.70855 7.40006 8.70855 7.40006C8.70855 7.40006 10.1242 8.08891 10.9477 10.6446C11.2051 11.4001 11.2565 12.1556 11.1793 12.8668C11.0506 14.6668 10.1499 16.2889 10.1499 16.2889C10.1499 16.2889 11.7199 16 12.1574 13.5333C12.8781 14.1777 13.5471 15.1112 13.6245 16.0888C13.7533 17.7778 12.5949 19.3333 10.8449 20C13.8818 19.4 16.0439 17.1777 16.7903 15.5556C17.7425 13.5111 17.4852 11.6889 17.3309 10.1111C17.1249 7.95558 18 6.35554 18 6.35554C18 6.35554 16.3271 6.7778 15.0916 8.53328C14.5254 9.33328 14.2938 10.5111 14.2938 10.5111C14.2938 10.5111 14.4225 9.46661 13.6246 7.5555C12.8268 5.68888 12.1062 5.02217 11.6686 3.64444C11.1024 1.8 12.3634 0 12.3634 0C12.3634 0 7.37028 0.799999 5.10536 4.55555C3.09782 7.88887 3.92134 9.88887 3.92134 9.88887C3.92134 9.88887 3.07199 9.20002 2.63445 8.24439C2.19693 7.28891 2.29981 6.42209 2.29981 6.42209C2.29981 6.42209 -1.25204 9.7999 0.472337 14.0443C1.63067 17.0223 3.86981 18.9776 6.57217 19.7776L6.57227 19.7777Z" fill="#3F4354"/>
</svg>
