<svg width="20" height="20" viewBox="0 0 20 20" fill="none" xmlns="http://www.w3.org/2000/svg">
<path d="M1.4757 1.5H13.6656V7.79459L15.1412 5.65845V0.795435C15.1412 0.363631 14.8205 0 14.3927 0H0.748576C0.320747 0.0226672 0 0.363627 0 0.795435V16.4071C0 16.8389 0.320724 17.2025 0.748576 17.2025H7.80586L7.87001 16.8389C7.93415 16.5434 8.01978 16.2481 8.14807 15.9526L8.27636 15.6345H1.4757V1.5Z" fill="#3F4354"/>
<path d="M11.3699 5.10767H3.86522C3.42098 5.10767 3.04688 5.43592 3.04688 5.87382C3.04688 6.28972 3.39749 6.63997 3.86522 6.63997L11.3699 6.63982C11.8141 6.63982 12.1882 6.31156 12.1882 5.87366C12.1649 5.43595 11.8141 5.10767 11.3699 5.10767V5.10767Z" fill="#3F4354"/>
<path d="M10.4451 8.17236H3.77429C3.37941 8.17236 3.04688 8.50062 3.04688 8.93851C3.04688 9.35442 3.35854 9.70467 3.77429 9.70467L10.4451 9.70451C10.84 9.70451 11.1725 9.37626 11.1725 8.93836C11.1518 8.50064 10.84 8.17237 10.4451 8.17237V8.17236Z" fill="#3F4354"/>
<path d="M9.1411 12.003C9.1411 11.5871 8.8147 11.2368 8.37927 11.2368H3.80871C3.39515 11.2368 3.04688 11.5651 3.04688 12.003C3.04688 12.4189 3.37328 12.7691 3.80871 12.7691H8.40103C8.79271 12.7471 9.14099 12.4189 9.14099 12.003H9.1411Z" fill="#3F4354"/>
<path d="M9.31128 17.157L8.63489 19.4091C8.54941 19.8635 8.90401 20.1471 9.31036 19.9198L11.2536 18.7283C11.4034 18.6375 11.553 18.5239 11.6813 18.3875L9.50356 16.6116C9.41808 16.7707 9.35395 16.9525 9.31128 17.157Z" fill="#3F4354"/>
<path d="M19.8066 6.12925L18.3723 4.93144C18.0729 4.68146 17.6238 4.74962 17.41 5.09058L10.3955 15.2029L12.6967 16.8554L19.8066 7.15078C20.0204 6.83265 20.106 6.35653 19.8066 6.12925Z" fill="#3F4354"/>
</svg>
