<svg width="163" height="44" viewBox="0 0 163 44" fill="none" xmlns="http://www.w3.org/2000/svg">
<path d="M0 2C0 0.895431 0.895431 0 2 0H155C159.418 0 163 3.58172 163 8V36C163 40.4183 159.418 44 155 44H8C3.58173 44 0 40.4183 0 36V2Z" fill="#FFECE6"/>
<circle cx="20" cy="22" r="10" fill="white"/>
<path d="M24 22.5L17.25 26.3971L17.25 18.6029L24 22.5Z" fill="#FF6934"/>
<rect x="46" y="19" width="2" height="6" rx="1" fill="#FF6934"/>
<rect x="53" y="16" width="2" height="12" rx="1" fill="#FF6934"/>
<rect x="60" y="13" width="2" height="18" rx="1" fill="#FF6934"/>
<rect x="67" y="10" width="2" height="24" rx="1" fill="#FF6934"/>
<rect x="74" y="16" width="2" height="12" rx="1" fill="#FF6934"/>
<rect x="81" y="19" width="2" height="6" rx="1" fill="#FF6934"/>
<rect x="88" y="15" width="2" height="14" rx="1" fill="#FF6934"/>
<rect x="95" y="10" width="2" height="24" rx="1" fill="#FF6934"/>
<rect x="102" y="15" width="2" height="14" rx="1" fill="#FF6934"/>
<rect x="109" y="19" width="2" height="6" rx="1" fill="#FF6934"/>
<path d="M128.143 26V25.062C128.974 24.2593 129.688 23.5453 130.285 22.92C130.892 22.2853 131.359 21.7113 131.685 21.198C132.012 20.6753 132.175 20.19 132.175 19.742C132.175 19.2753 132.049 18.902 131.797 18.622C131.545 18.342 131.181 18.202 130.705 18.202C130.36 18.202 130.043 18.3 129.753 18.496C129.473 18.692 129.212 18.9253 128.969 19.196L128.073 18.3C128.484 17.8613 128.909 17.5253 129.347 17.292C129.786 17.0493 130.309 16.928 130.915 16.928C131.774 16.928 132.455 17.1753 132.959 17.67C133.473 18.1647 133.729 18.8273 133.729 19.658C133.729 20.1807 133.58 20.7173 133.281 21.268C132.992 21.8093 132.6 22.3647 132.105 22.934C131.62 23.5033 131.083 24.1007 130.495 24.726C130.729 24.7073 130.981 24.6887 131.251 24.67C131.522 24.642 131.765 24.628 131.979 24.628H134.163V26H128.143ZM136.721 21.38C136.432 21.38 136.184 21.2773 135.979 21.072C135.774 20.8667 135.671 20.6053 135.671 20.288C135.671 19.9707 135.774 19.7093 135.979 19.504C136.184 19.2987 136.432 19.196 136.721 19.196C137.02 19.196 137.267 19.2987 137.463 19.504C137.659 19.7093 137.757 19.9707 137.757 20.288C137.757 20.6053 137.659 20.8667 137.463 21.072C137.267 21.2773 137.02 21.38 136.721 21.38ZM136.721 26.168C136.432 26.168 136.184 26.0653 135.979 25.86C135.774 25.6547 135.671 25.3933 135.671 25.076C135.671 24.7587 135.774 24.4973 135.979 24.292C136.184 24.0867 136.432 23.984 136.721 23.984C137.02 23.984 137.267 24.0867 137.463 24.292C137.659 24.4973 137.757 24.7587 137.757 25.076C137.757 25.3933 137.659 25.6547 137.463 25.86C137.267 26.0653 137.02 26.168 136.721 26.168ZM139.177 26V25.062C140.007 24.2593 140.721 23.5453 141.319 22.92C141.925 22.2853 142.392 21.7113 142.719 21.198C143.045 20.6753 143.209 20.19 143.209 19.742C143.209 19.2753 143.083 18.902 142.831 18.622C142.579 18.342 142.215 18.202 141.739 18.202C141.393 18.202 141.076 18.3 140.787 18.496C140.507 18.692 140.245 18.9253 140.003 19.196L139.107 18.3C139.517 17.8613 139.942 17.5253 140.381 17.292C140.819 17.0493 141.342 16.928 141.949 16.928C142.807 16.928 143.489 17.1753 143.993 17.67C144.506 18.1647 144.763 18.8273 144.763 19.658C144.763 20.1807 144.613 20.7173 144.315 21.268C144.025 21.8093 143.633 22.3647 143.139 22.934C142.653 23.5033 142.117 24.1007 141.529 24.726C141.762 24.7073 142.014 24.6887 142.285 24.67C142.555 24.642 142.798 24.628 143.013 24.628H145.197V26H139.177ZM149.574 21.66C149.322 21.66 149.056 21.7393 148.776 21.898C148.496 22.0473 148.23 22.3087 147.978 22.682C148.062 23.4753 148.254 24.0493 148.552 24.404C148.851 24.7587 149.215 24.936 149.644 24.936C150.018 24.936 150.33 24.7913 150.582 24.502C150.844 24.2033 150.974 23.7833 150.974 23.242C150.974 22.7193 150.848 22.3273 150.596 22.066C150.354 21.7953 150.013 21.66 149.574 21.66ZM149.672 26.168C149.094 26.168 148.557 26.014 148.062 25.706C147.568 25.398 147.171 24.922 146.872 24.278C146.583 23.634 146.438 22.8127 146.438 21.814C146.438 20.6567 146.602 19.7233 146.928 19.014C147.264 18.2953 147.698 17.768 148.23 17.432C148.762 17.096 149.332 16.928 149.938 16.928C150.48 16.928 150.946 17.026 151.338 17.222C151.73 17.418 152.057 17.656 152.318 17.936L151.45 18.916C151.292 18.72 151.082 18.5613 150.82 18.44C150.568 18.3093 150.307 18.244 150.036 18.244C149.663 18.244 149.322 18.3467 149.014 18.552C148.706 18.7573 148.454 19.1027 148.258 19.588C148.072 20.064 147.964 20.7127 147.936 21.534C148.198 21.2073 148.506 20.9507 148.86 20.764C149.215 20.5773 149.551 20.484 149.868 20.484C150.643 20.484 151.268 20.7127 151.744 21.17C152.23 21.618 152.472 22.3087 152.472 23.242C152.472 23.83 152.342 24.3433 152.08 24.782C151.828 25.2207 151.492 25.5613 151.072 25.804C150.652 26.0467 150.186 26.168 149.672 26.168Z" fill="#FF6934"/>
</svg>
